<?xml version="1.0" encoding="utf-8"?>
<!DOCTYPE svg PUBLIC "-//W3C//DTD SVG 1.1//EN" "http://www.w3.org/Graphics/SVG/1.1/DTD/svg11.dtd">
<svg version="1.1" xmlns="http://www.w3.org/2000/svg" xmlns:xlink="http://www.w3.org/1999/xlink" x="0px" y="0px"
 	viewBox="0 0 800 500" style="enable-background:new 0 0 800 500;" xml:space="preserve">
 	
	<style type="text/css">
		<!--/* background styles */-->
		#sky {fill:url(#daytime);}
		#sky:hover {fill: navy;}
		#sky:active{visibility: hidden;}
		#ground {fill:url(#savannah);}
		<!--/* midground styles */-->
		#midground {transform:translate(580px, 45px);width:10px;height:auto;}
		#tiny:hover, #tree:hover {transform:translate(580px, 45px);-ms-transform:scale(1.2,1.4);-webkit-transform:scale(1.2,1.4);transform:scale(1.2,1.4);}	
		<!--/* foreground styles */-->
		#short {transform:translate(210px, 90px);}
		#short:hover {fill:url(#partyhard);}
		#short:active {fill:url(#partyhard2);}
		#tall:hover {fill: #bbb;}
		#tall:active {filter: url(#blur);}
		<!--/* furtherground styles */-->
		#star{fill: white;}
		#night {fill: navy;}
	 </style>
 
 	 <defs>
		<linearGradient id="daytime" x1="0%" y1="0%" x2="0%" y2="100%">
			<stop offset="00%" stop-color="blue" stop-opacity="1" />
			<stop offset="100%" stop-color="navy" stop-opacity="1" />
		</linearGradient>
		<linearGradient id="partyhard" x1="0%" y1="0%" x2="0%" y2="100%">
			<stop offset="0%" stop-color="magenta" stop-opacity="1" />
			<stop offset="100%" stop-color="cyan" stop-opacity="1" />
		</linearGradient>
		<linearGradient id="partyhard2" x1="0%" y1="0%" x2="0%" y2="100%">
			<stop offset="0%" stop-color="lime" stop-opacity="1" />
			<stop offset="100%" stop-color="cyan" stop-opacity="1" />
		</linearGradient>
		<linearGradient id="savannah" x1="0%" y1="0%" x2="0%" y2="100%">
			<stop offset="30%" stop-color="#4D0000" stop-opacity="0.8" />
			<stop offset="100%" stop-color="sienna" stop-opacity="0.8" />
		</linearGradient>
		<filter id="blur">
			<feGaussianBlur in="SourceGraphic" stdDeviation="26" />
		</filter>
	</defs>
 	 
 	 <g id="furtherground">
			<rect id="night" x="0" y="0" width="800" height="300" />
			<circle id="star" cx="350" cy="20" r="3" />
	 		<circle id="star" cx="144" cy="270" r="3" />
			<circle id="star" cx="14" cy="40" r="3" />
			<circle id="star" cx="700" cy="140" r="3" />
			<circle id="star" cx="885" cy="236" r="3" />
			<circle id="star" cx="345" cy="230" r="2" />
			<circle id="star" cx="723" cy="14" r="2" />
			<circle id="star" cx="276" cy="189" r="2" />	
			<circle id="star" cx="542" cy="32" r="2" />
			<circle id="star" cx="127" cy="234" r="2" />
			<circle id="star" cx="435" cy="100" r="1" />
			<circle id="star" cx="430" cy="200" r="1" />
			<circle id="star" cx="34" cy="150" r="1" />
			<circle id="star" cx="490" cy="210" r="1" />
			<circle id="star" cx="210" cy="60" r="1" />
	</g> <!-- furtherground -->

	<g id="background">
		<rect id="sky" x="0" y="0" width="800" height="300" />
		<rect id="ground" x="0" y="300" width="800" height="200" />
	</g> <!-- background -->

	<g id="midground">
		<path id="tree" d="M173.4,162.5c-1.4,0.8-3,1.7-3.9,2.8c-1.6,1.6-2.8,1.4-4.5,0.6c-2.1-1-4.4-1.7-6.4-2.9c-3.2-1.8-6.4-2.1-9.9-0.6
		c-2.7,1.1-5.6,1.1-8.4,0.2c-0.9-0.3-1.8-0.7-3-0.1c-11.4,6-16.7,15.4-18.7,27.2c3.1-1,4.4-2.9,5.7-4.9c1.4-2.4,3.1-4.8,7.2-5.1
		c-1.1,1.3-1.9,2.3-2.8,3.1c-3.5,2.8-4.6,7.8-8.8,9.6c-8.9,3.9-10.1,11.5-12.5,18.7c-2.1,6.6-2.7,13.5-2.8,20.4
		c-0.1,7.2-0.8,14.5,1,21.6c0.5,2.1-0.4,2.8-2.7,2.8c-8.3,0-8.5-0.1-6.8-7.2c0.5-2.3,0.3-4.6,0.3-6.8c0-3.6,0.8-7.2,0.9-10.8
		c0.2-4.2-0.7-8.4-1.6-12.5c-1.2-5.4-0.7-10.9-2.1-16.2c-0.6-2-0.5-4.2-1.3-6.2c-2-5.3-0.8-10.4,0.3-15.6c1.2-5.2-0.3-9.5-4.3-13.5
		c-2.4-2.3-5.2-2.4-8.1-2.8c-2.9-0.3-5.8-0.4-7.7,2.2c-0.1,0.2-0.5,0.2-0.9,0.3c-0.4-1.5,1.3-2.1,1.5-3.5c-1.9-0.5-3.5-0.5-5.3,0.6
		c-3.7,2.4-7.7,3.7-12.5,3.5c-5.4-0.3-10.2,1.8-14.7,4.7c-2.7,1.7-5.4,3.6-9.2,3.5c0.4-1.8,2.6-1.6,3.7-2.9
		c-1.2-0.5-1.9-0.1-2.6,0.2c-2.3,0.8-4.5,1.2-5.9-1.2c-0.3-0.5-0.8-0.9-1.4-0.5c-1.3,1-3.2,0.4-3.4-0.1c-0.3-1.1-0.2-2.5,0.7-3.6
		c0.5-0.6,1-1.2,1.1-2.1c-1.6-0.6-3.2,0.2-4.9-0.8c3,1,3.6-2,5.6-2.7c2.2-0.8,5.5-0.8,7.3,0.5c0.9,0.7-1.2,2,0.9,2.2
		c1.6,0.2,1.4-1.4,2.6-1.7c2.2-0.6,4.1,1,4.5,3.9c2.2-1.5,4.9-2.4,5-5.5c0-0.5,0.3-0.4,0.5-0.3c3.3,1.3,4.2-1.6,6-2.9
		c1.1-0.8,0.8-1.3-0.6-1.7c-1.4-0.4-2.8-0.2-3.9,0.3c-4,1.9-7.8,0.5-11.8,0.1c-3.4-0.4-5.1-3.4-8.3-4c-2.2-0.4-4.1-1.2-6.6-0.4
		c-2.1,0.6-4.8-0.4-6.7,1.7c-0.2,0.2-1.6-0.1-1.2-0.6c1.5-2.2-0.7-1.5-1.5-1.6c-1.6-0.4-2.7-1.5-3.2-2.8c-0.5-1.2,1.3-1.2,2-1.9
		c1.5-1.7,3.2-3.5,5-4.7c2.7-1.7,6.1-2.9,9.6-2.1c1.3,0.3,2.5,0.6,3.2-0.7c0.7-1.3-0.4-1.9-1.4-2.5c-1.3-0.9-0.8-1.5,0.5-1.6
		c3-0.2,5.6-1.5,8.1-2.4c3.7-1.4,7.5-2,11.2-3.3c0.3-0.1,0.5-0.6,1.2-0.2c1.9,1.3,3.9,0.4,5.2-0.6c2.4-2,5.1-1,7.1-0.5
		c1.6,0.4,3,0.6,3.8-0.2c1.9-1.7,4-1.1,6-1.4c3.3-0.5,6.1,0.3,8.9,1.9c0.5,0.3,1.2,0.5,1.6,0c0.6-0.6-0.5-0.8-0.5-1.3
		c-0.2-2.1-2.7-3.5-1.8-6c0.5-1.6,3.1-1.5,2.8-3.5c0-0.2,1.4-0.4,0.6-1.2c-0.5-0.5-1-0.7-1.7-0.3c-0.8,0.5-1.7,0.6-2.3,0
		c-0.5-0.6-0.1-1.4,0.6-1.9c0.8-0.6-0.5-1.4,0.2-1.9c1.3-0.7,1.7-2.4,4.1-1.9c2.5,0.5,5.2,0.7,7.8-0.6c0.9-0.4,2.7-1,4.1,0.5
		c1.2,1.2,5,0.1,6.3-1.2c2.7-2.8,5.9-4.6,10.4-4c2.3,0.4,4.7,0.2,7.1,0.2c1.9,0,2.7,0.4,2.4,2.5c-0.5,2.9,2.6,6.3,5.7,6.5
		c0.8,0.1,1.7-0.1,2.1-1c1.3-2.6,3.8-2.9,6.3-1.9c2.1,0.9,4.2-0.1,6-0.3c2.8-0.3,4.9,0.3,7.2,1.3c1.9,0.8,3.9,0.8,6,0.3
		c4-1.1,6.7,0.3,8.2,4c0.5,1.4,2.1,2,3.7,2.4c2.7,0.6,5.3,1.3,7.7,2.5c1.3,0.6,1.4,0.8,0.5,1.8c-1.3,1.3-2,3-3.2,4.4
		c-1,1.2,2.1,3.4,4.5,2.9c1.4-0.4,2.6-0.6,3.4,0.7c0.3,0.5,2.3,0.2,1.2,1.4c-0.3,0.4-0.7,2.5-2.3,0.8c-0.3-0.3-0.8-0.2-0.9,0.3
		c-0.1,0.3,0.2,0.8,0.4,0.9c1.4,0.4,1.4,1.2,1.3,2.5c-0.1,2.2,2.9,2.2,4.5,3.2c0.6,0.4,1.7-0.7,2.8,0.4c0.5,0.6,0.3-1.2,0.8-1.3
		c4.9,6.1,10.7,11.7,11.7,19.7c-0.8,0.1-1.5-0.6-2.3-1c-0.5-0.3-1-0.7-1.6-0.4c-0.5,0.4-1,1.4-0.9,1.5c1.4,1-0.6,3,1.1,3.6
		c0.8,0.3,2.2,0.7,2.7-0.6c0.5-1.3,1.5-0.4,1.7-0.2c1.9,2.6,3.6,5.2,4.6,8.2c0.2,0.6-0.2,1-0.7,1.5c-0.3-0.4-0.5-0.9-0.9-1.1
		c-0.9-0.6-0.3-2.4-1.6-2.2c-1.7,0.4,0.7,1.9-0.3,2.6c-2.4-1.7-3.6-4.7-7.2-5.2c-1.3-0.2-2.4-0.2-3.7,0.1c-3.3,0.8-6.7,0.7-9.3-1.3
		c-1.8-1.3-4.3-1.1-5.8-2.8c0.5,0,0.9,0.1,1.4,0.1c0.7-0.1,1.6,0.2,2-0.5c0.3-0.4,0.1-0.8-0.3-1.2c-0.7-0.6-1.6-0.6-2.4-0.4
		C172.6,160.6,173.7,161.8,173.4,162.5z M100.2,218.4c0.3-1.6,0.8-3.2,1.1-4.8c1.6-8.4,6-16,7.6-24.4c1-5.5,4-10.4,6-15.6
		c1-2.4-0.9-8.5-3-9.1c-3.1-0.8-6.4,1.6-9.4-0.6c-0.1-0.1-0.6,0.1-0.8,0.3c-2,1.8-1.8,0.1-2-1c-0.1-0.9,0.1-2.7-1.1-2.2
		c-3,1.2-4.6-1.6-7.3-1.4c3.7-0.4,2.6-2.5,2.1-4.4c-0.6-2.2-2.5-1.7-4.1-1.6c-0.9,0.1-1.9,0.3-2.8,0.5c-2,0.5-2.7,1.4-1.2,3.2
		c1.4,1.5,3,2.9,4.3,4.6c3.2,4.4,7.4,8.4,8.3,13.9c0.1,0.2,0.3,0.4,0.6,0.6c1.1,0.8,0.7,1.5,0,2.4c-2.4,3.4-4.1,7.3-3.3,11.3
		C96.8,199.6,99.7,208.8,100.2,218.4z M69.4,158.5c-1-1.1-2.3-1.5-3.7-1.9c-0.9-0.3-2.2-1.4-1.7-1.6c2-1,0.1-1.5-0.2-2
		c-0.8-1.8-2.8-0.8-4.3-1.3c1.4-2.4-1.8-1.7-2.3-2.9c0.6-0.4,1.7,0.2,2-0.8c0.1-0.4-0.2-0.6-0.6-0.8c-1-0.4-1.7,0.1-2.3,0.7
		c-0.2,0.2-0.3,0.5-0.4,0.7c-2.4,3.9-1.1,8-0.1,11.9c0.3,1.3,2.3,2.9,3.8,1.9C62.7,160.3,66.4,160.1,69.4,158.5z M140.9,154
		c-1.9,0.4-3.3,0.6-4.8,0.9c-1.2,0.2-2.2,0.6-2.8,1.6c-0.4,0.6-0.8,0.1-1.1-0.2c-1.6-1.4-2.8-0.4-3.9,0.6c-1.4,1.4-1.7,4.9-0.5,6.5
		c0.8,1.1,1.3,0.1,1.7-0.3c2.1-1.9,4.5-3.4,7.1-4.4C138.9,157.8,140.2,156.5,140.9,154z M183.7,165.1c0.6,0,1,0,1.4,0
		c1.9,0.1,3.4-0.3,4.1-2.2c0.6-1.9-0.9-1.6-2-2.2c-1.4-0.8-2.3-2.8-4.4-2.4c-1.9,0.3-2.5,2.5-3.7,3.1c-2.3,1.1-1,1.4-0.1,2.2
		C180.4,164.9,182.1,165.3,183.7,165.1z M112.5,144.7c0.2,0.6-0.6,1.7,0.5,1.7c2.1,0.1,2.7,1.5,3.5,2.8c0.9,1.3,1.8,1.2,3.1,0.7
		c1.5-0.5,1.2-1.5,0.8-2.3c-0.8-1.9-1.9-3.7-1.6-5.8c0.1-0.4-0.1-0.8-0.7-1C116.2,140.5,112.6,142.9,112.5,144.7z M126.9,142.5
		c0.6-1.9,1.9-1.6,3.1-0.7c1.3,1,2.8,0.7,4.1,0.4c1.2-0.2,2.1-1.1,3.1-1.7c-1.3-1.3-2.4-2.9-4-3.7c-1-0.5-3,1.5-3.9-0.7
		c0,0-0.7,0.1-0.7,0.3C128,138.2,125,139.6,126.9,142.5z M128.6,145.4c1.3-0.7,2.9-0.3,3.7-1.4c-3.9-1.5-5.3-1.3-7.4,1.7
		c-0.8,1.2-1.3,2.4,0.1,3.8c1.6,1.5,4,1.5,4.6,0.2c1.3-2.6,3-2.2,5-1.6c0.5,0.1,0.9-0.3,0.8-0.8s-0.7-0.8-1-0.6
		C132.3,147.6,130.8,145.8,128.6,145.4z M81.6,139.3c-0.6,1.1,1.1,1.1,0.6,2.2c-1.6,3.4-0.3,5.9,3.6,7.2c1.3,0.4,2.7,0.7,3.7-0.3
		c1-1.1-0.1-2.4-0.3-3.4c-0.3-1.3-1.9-0.8-3-0.5c-0.9,0.2-2-0.2-1.7-0.5c1.3-1.4-0.6-2.4-0.5-2.7C85.2,137.9,82.2,140.1,81.6,139.3
		z M135.1,127.4c0-1.5-2.2-3.1-4.2-3c-0.9,0.1-1.8,0.4-2.5,0.2c-1.4-0.5-3-0.3-4.4,0.5c-1,0.6-0.9,1-0.1,1.4c0.9,0.4,1.6,1.7,3,0.7
		c1.9,2.4,4.2,2,7,1.5C135.2,128.5,135.1,128.1,135.1,127.4z M41.8,168.1c1,0.5,2.3-0.1,2.7-0.4c2-2.5,5.3-2,7.9-3
		c0.7-0.3,2.1,0.3,1.9-1c-0.2-1.1-0.1-2.3-0.9-3.2c-0.3-0.4-0.8-0.4-0.9-0.1c-0.9,1.5-2.8,1.3-4.1,1.6c-3.5,1-4.4,4-6.7,5.9
		C41.7,167.9,41.7,168,41.8,168.1z M144.4,136.5c-0.9-1.2-1.7-2.3-2.6-3.3c-1.3-1.5-2.6-1.3-3.2,0.4c-0.4,1.1-0.3,2.3-1.9,2.7
		c-0.6,0.2-0.6,1-0.4,1.1c1.3,0.8,1.9,2.7,3.9,2.4C142.4,139.5,143.1,137.8,144.4,136.5z M120.7,173.2c2.3-2.3,3.5-5.1,5.7-7.4
		c1.3-1.3,0-2.9-0.3-4.2c-0.2-0.8-1-0.4-1.4,0.3C122.9,165.4,121.1,169,120.7,173.2z M172,146.2c1.3,1.2,3.7,1.3,4.3,3.4
		c0.2,0.9,1.2,0.3,2,0.2c1.1-0.1,0.9-1.3,1.9-1.4c0.8-0.1,1.9-0.6,1.5-1.1c-0.5-0.6-1.2-1.6-2.5-1.4c-0.6,0.1-1.4,0.9-1.8,0.2
		C175.4,142.8,173.7,144.6,172,146.2z M76.6,153.5c-2.9,0.1-5.6-0.1-7.5-2.3c-0.2-0.2-0.9-0.3-1.3-0.1c-0.6,0.2-0.2,0.7-0.1,1.1
		c0.1,0.5,0.9,1,0.3,1.7c-1.4-0.1-1-1.4-1.9-2.2c-0.7,1.6-0.3,3,0.7,3.7C69.4,157,73.9,156.2,76.6,153.5z M163.1,156.8
		c0.3,1,0.6,2,1,3c0.3,0.8,0.5,2,1.9,2c0.9,0,1.5-0.5,1.6-1.3c0.1-1.1,1.9-2,0.4-3.3c-0.9-0.7-2.6-1.1-1-2.7
		c0.5-0.5-0.5-0.7-1.1-0.7C164.1,154.3,163.2,155.3,163.1,156.8z M155.9,157.9c-0.1-0.2-0.2-0.5-0.3-0.7c-1.1-1.6-6.9-2.5-8.6-1.5
		c-0.6,0.3-0.8,0.7-0.8,1.3c0.1,0.6,0.6,0.6,1,0.7c2.2,0.6,4.6,0.4,6.7,1.3C154.9,159.4,155.3,158.4,155.9,157.9z M92.6,150.1
		c1-0.4,1.3-1.4,2.4-1.4c3.4,0,1.3-2.4,0.9-2.5c-1.6-0.6-3.2-2.7-4.8-1.4c-1,0.8-0.3,2.9,0.8,4.3C92.1,149.3,92.3,149.6,92.6,150.1
		z M107.6,146.5c2.6,0,4.2-1.3,4.2-3.4c0-0.7,0.1-1.4-1.1-1.4c-2.3,0.1-5,1.9-4.9,3.4C106,146.4,106.9,146.5,107.6,146.5z
		M94.5,154.5c0,1-0.1,1.6,0,2.2c0.4,2.7,0.8,2.9,3.3,1.4c1-0.6,1.8-0.4,2.7-0.1c0.7,0.2,1.7,0.6,1.8-0.4c0.1-0.7-0.3-1.4-1.5-1.5
		C98.8,155.8,96.7,155.4,94.5,154.5z M181.2,151.1c-0.7,1.2-3-0.5-3,1.2c-0.1,2,2.2,2.5,3.8,3.2c0.9,0.3,1.9-0.3,1.6-1.3
		C183.3,153.1,183.1,151.7,181.2,151.1z M117.1,158.5c-0.2-1.1-0.2-2.5-1.9-2.3c-1,0.2-3,0.2-2.7,2c0.2,1.3,0.9,2.2,2.6,2.2
		C116.5,160.3,117.4,160,117.1,158.5z M123.1,147.7c0.3-1.3,0.8-2.4,0.9-3.4c0.2-1.3-0.9-1.5-1.8-2c-0.6-0.3-1.3-0.8-1.8-0.4
		c-0.8,0.6-0.5,1.7-0.2,2.4C120.7,145.6,121.5,146.8,123.1,147.7z M111.4,151.8c-0.8-1.3-2.5-1.2-3.9-1.5c-0.7-0.2-1.7-0.2-1.4,0.9
		c0.2,1.3,0.9,2.7,2.5,2.7C109.6,153.9,111,153.6,111.4,151.8z M99.8,139.3c0-1.5-1-2.2-2.6-2.3c-1.2-0.1-2.1,0.3-2.1,1.5
		c0.1,1.8,2,1.6,3.2,2.1C99.4,141.2,99.7,140.2,99.8,139.3z M98.5,151.9c0.9,0.7,2.2,0.1,2.7,1.1c0.6,1.2,1.6,0.8,2.4,0.4
		c1-0.6,0.6-1.5,0.3-2.4c-0.3-1.2-1.3-1-2-0.7C100.9,150.7,99.5,150.8,98.5,151.9z M117.8,166.5c1.1-1.1,1.4-2.3,1-3.6
		c-0.3-1.1-1.4-1.5-2.5-1.3c-1.3,0.3-1,1.3-0.5,2.1C116.3,164.7,116.6,165.9,117.8,166.5z M111.6,140.6c1.1-0.3,3-0.1,2.8-1.5
		c-0.2-1-1.9-2.4-2.8-2.4c-1.7,0.1-2.6,1.6-2.7,3.3c1.8,0.1,1.2-1.7,2.4-2.2C111.3,138.6,111.5,139.5,111.6,140.6z M119.9,128.1
		c0.1-0.6-3.2-2.8-3.9-2.7c-0.5,0.1-0.6,0.5-0.6,0.7c0.2,1,0.4,2.1,0.9,3c0.6,1.1,1.4-0.1,2.2-0.1
		C119.3,129.1,119.9,128.9,119.9,128.1z M112.1,125.3c1,0,1.6,0.1,1.5-0.9c-0.2-1.6-1.7-1.9-3.1-2.1c-1.1-0.2-2.4,0.4-2,1.5
		C109,125.3,111.3,124.3,112.1,125.3z M112.2,134.4c0.5,1.6,1.3,2.8,2.6,2.8c1,0.1,1.6-1.2,2.1-2.1c0.2-0.4,0.5-0.9-0.1-1.2
		c-0.3-0.2-1.2-0.2-1.3,0.1C114.7,135.1,113.6,135,112.2,134.4z M97.6,142.2c-1.9-1.2-3.7-2.2-6.2-0.8
		C93.5,142.3,95,144.3,97.6,142.2z M119.8,153.4c0.8,1.5,1.6,2.1,2.8,2.3c0.6,0.1-0.8,1.7,0.9,1.2c0.8-0.3,1-1.1,1-1.7
		c0-0.8-0.6-1-1.4-1.3C122.1,153.4,121.1,153.7,119.8,153.4z M162.2,157.3c0-0.6,0.1-1.4-0.9-1.1c-0.8,0.3-2.4-0.1-2.3,1.3
		c0.1,0.9,0.8,1.2,1.9,1.1C162,158.7,162.5,158.3,162.2,157.3z M80.3,144.5c-0.1-1.3,0.8-2.7-0.6-3.7c-0.5-0.4-1.1,0.1-1.4,0.6
		C77.2,143.3,79.9,143.3,80.3,144.5z M166.6,164.1c2.3-0.1,2.5-2.3,4.1-2.8c0.3-0.1,0.2-0.7-0.2-0.9c-0.5-0.3-0.9-0.2-1.3,0.2
		C168.3,161.6,167,162.4,166.6,164.1z M101.7,146.2c-0.7-0.3-1.3-0.6-2-0.7c-0.6-0.1-1.4-0.1-1.6,0.7c-0.1,0.5-0.6,1.1,0,1.4
		c0.5,0.3,1.2,0.1,1.6-0.3C100.2,146.9,101.2,147.3,101.7,146.2z"/>
	
		<path id="tiny" d="M33.3,250.1c-0.8,2.3-0.6,4.6-0.8,6.8c-0.1,0.6,0.6,1.9-0.8,1.8c-1.2-0.1-0.9-1.2-0.9-1.9c0.1-5.7-0.9-11.4-0.6-17.2
		c0.1-0.9,0.6-2.1-0.8-2.6c-1.2-0.4-2.3,0.4-3,1.2c-2.8,3.1-4.3,6.8-4.9,10.8c-0.3,2.7-0.1,5.5-0.1,8.2c0,0.5,0.4,1.4-0.6,1.5
		c-1.1,0.2-1-0.7-1.3-1.4c-0.6-1.7-0.3-3.5-0.5-5.2c-0.1-0.7,0-1.6-1-1.7c-1-0.1-1.1,0.7-1.4,1.4c-0.9,2.1-0.5,4.2-0.5,6.3
		c0,0.5,0.3,1.2-0.6,1.3c-0.7,0.1-1-0.4-1.1-1c-1.1-4.6-0.2-9.1,0.6-13.5c0.2-1.4,0.5-2.7,0.2-4.1c-1.3-5.5-1.8-10.9,3.2-15.2
		c1.9-1.6,3.9-3.1,6-4.5c1-0.7,1.9-1.5,2.4-2.6c3.3-6.4,6-12.8,5.6-20.1c-0.2-2.8,0.6-5.6,0.6-8.4c0-1.7-0.6-1.9-2-1.2
		c-1-1.2,3.7-3.8-2.5-3.3c4.5-2,3.9-5.9,6.6-8c0.6-0.5,0.9-1.5,2-1.1c0.9,0.3,0.6,1.2,0.6,1.9c0,7.8-0.6,15.6,0.5,23.3
		c0.8,5.5,1,10.9,0.1,16.3c-0.3,1.5-0.5,3.2,0.3,4.7c3.1,5.7,1.6,11.3-0.3,17c-1.8,5.1-1.9,10.4-1.9,15.7c0,0.7,0.1,1.4,0.1,2.1
		c-0.1,0.5,0.3,1.4-0.7,1.5c-1.2,0.1-1-0.8-1-1.5c-0.2-1.7-0.4-3.5-0.6-5.2C34.2,251.3,34,250.7,33.3,250.1z M33.4,245
		c0.2,0,0.4,0,0.6,0c0.2-1.4,0.4-2.8,0.6-4.1c0.2-1.3,0.3-2.7,0.1-4c-0.2,0-0.5-0.1-0.8-0.1C33.7,239.6,33.6,242.3,33.4,245z"/>
	</g> <!-- midground -->

	<g id="foreground">
		<g id="tall">
			<path d="M-24,392c5.8-4.1,9.1-10.5,13.7-15.7c2.7-3,4.8-6.4,7.2-9.6c0.6-0.8,1.3-1.8,2.4-1.3c1.4,0.5,0.4,1.7,0.3,2.6
			c-0.1,0.8-0.4,1.6-0.5,2.5c-0.1,0.9-1,2.1,0.4,2.5c0.6,0.2,1.9-0.1,2.3-0.6c3.3-5.3,8.5-8.8,9.5-16.2c1.4-10.2,4.7-20.4,13.4-27.5
			c0.9-0.7,1.7-1.8,2.7-2.2c2.3-0.9,4.6-3.9,7.2-1.4c2.3,2.3-0.7,4.2-1.6,5.9c-1.4,2.7-1.5,5.7-2.2,8.7c4.7-5.8,10.7-10.8,12.7-18.4
			c3.7-13.9,10.7-25.9,19.9-36.9c2-2.4,4.1-4.7,5.6,0.4c0.3,1.1,1.1,2.1,2.1,1.5c2.6-1.7,4.1-4.7,7.5-5.6c1-0.3,1.5-3,1-4.6
			c-3.4-10.3,1.4-18.8,6-27.3c0.4-0.8,1.4-1.5,0.9-2.9c-1.4,1.6-2.8,3.1-4.3,4.7c0.6-5.2,14.1-30.3,19.4-36.3
			c-0.5,6-5.2,10.8-4.1,17.1c3.2-5.4,6.6-10.7,7.4-17.1c1-7.6,3.3-14.9,6.1-22c0.8-2,0.4-2.6-0.8-3.5c-6.1-4.7-10.1-11.3-15.3-16.8
			c-3.1-3.2-7.6-5.9-8.7-10.8c-1.1-4.8-1.9-9.7-2.8-14.6c-0.2-1.1-0.4-2.4,1-3.1c1.5-0.8,2.3,0.4,2.7,1.4c0.9,2.1,3.1,3.2,3.7,5.6
			c0.4,1.8,2,3.7,4.5,1.9c0.6-0.4,1.6-0.8,1.7-0.2c0.5,2,1.3,3.5,3.5,2.4c3-1.6,5.9-3.5,8.8-5.3c-1.3-1.8,0.5-5.1-3-5.7
			c4.6-4.3,9.6-7,15.8-8.4c-1.2,4.1-0.2,7.4,3.6,9.4c2.5,0.2,0.4-4.5,3.6-3.4c2.5,0.9,3.7,2.2,2.6,5.3c-0.5,1.5,3.6,0.6,3.2,3.6
			c-1.4,0.1-3.3-1.1-4.5,0.6c-0.1,2.2,2.7,1.7,3.2,3.4c-0.9,1.2-2.1,0.8-3.2,0.6c-3.2-0.7-3.8,1.9-4.2,3.7
			c-0.8,3.5,8.9,11.1,12.4,10c0.4-0.1,1.3-0.2,1.3-0.3c-0.3-5.2,4.2-2.4,4.7-2c4.8,3.8,9.3-2.9,13.8,0c2.3-3.8,6.1-5.2,9.7-7.1
			c1.4-0.7,0.8-2.8,0.4-4.2c-0.7-2.3-3.2-3.2-4.4-5.3c-1.5-2.6-4.3,0.1-5.2,0.6c-5.2,3.1-7-0.9-9.5-3.8c-1.1-1.3-0.9-4-4-3
			c-1.1,0.3-3.2-1.3-2.6-2.9c1-2.6,2.2,0.1,3.3,0.2c4.2,0.4,7.1,3,10.7,6.2c-1.7-4.6,1.1-3.2,3-2.8c-1.5-3.8-4.6-4.3-7.6-4.5
			c-3.4-0.3-5.7-1.4-6-5.3c3.2,0.3,6.3,0,9.7,1.9c5.2,2.9,12.3-3.7,12.7-10.9c0.2-3.3,0.2-3.3,3.6-3.4c-0.3-1.8-2.1-2.7-2.3-4.7
			c-0.4-3.7,0.3-5.3,3.2-4.7c1.7,0.3,2.8-0.3,4.2-0.9c1.5-0.7,2.6-0.2,2.5,1.7c-0.1,1.2-1.1,3,0.8,3.4c2,0.5,2.1-1.6,2.8-2.8
			c0.3-0.4,0.4-0.9,0.6-1.4c2.2,0.1,0.7,2.8,3,3.4c0-0.1,0.2-0.5,0.4-1c1.7-5,0.6-9.7-1.6-14.4c-0.9-1.8-1.5-3.2-3.4-0.9
			c-0.6,0.8-1.6,1.5-2.6,0.9c-1.2-0.7-1-2-0.7-3.1c0.7-3.2,0.5-6.8,4.6-8.5c1.1-0.4,2.7-2.2,1.5-4.2c-1.4-2.3-2.4,0.1-3.6,0.3
			c-1.4,0.2-2.8,0.7-4,0.8c-4.6,0.5-3.2-3.2-3.4-5.8c-0.2-2.2,2.7-4,0.9-6.1c-1.7-1.9-1.9-4.2-3-6.2c-1-2-2.4-3.5-4.7-5.3
			c4.5-0.7,4.9-2.3,2.3-5.6c-1.6-2.1-4-5.9,2.3-5.2c1.1,0.1,2.4-1.1,1.8-1.7c-1.5-1.5,0.2-4-2-5.1c-0.9,2-6.4-2.6-4.8,3.3
			c0.4,1.2-1.1,2.9-1.8,2.5c-3.6-2-4.2,2.5-6.7,2.8c-0.3,0-0.9,0.3-0.9,0.4c0.8,7.9-8.1,6.5-10.7,11.1c-0.9,1.6-2.5,2.9-3.9,4.6
			c-1.5-2.6-1-5-1-7.4c0-1.4-1.1-3.4-2.1-2.1c-2.4,3.3-6.4,2.5-9.2,4.5c-4.4,3-5.7,8-7.7,12.4c-0.2,0.4,0.1,1.3-0.1,1.4
			c-4.1,1.7-5.1,6.8-9.4,8.2c1.4,1.8,4-0.1,5,1.6c1.3,2.4,2.7,5-0.3,7.5c-6.2,5.4-9.6,5.1-15.7-2.3c-0.3,3.1-4.4,2.7-4.6,6
			c-0.1,1.6-1.5,0.6-2.3,0.3C86,96,75.7,92.5,69,83.1c-1-1.4-1.9-2-3-0.2c-2.7,4.5-5,1.3-6.1-0.8C52.2,68,44.9,53.6,40.5,38
			c-1.4-4.9,1.3-7.6,6.5-6.5c11.9,2.6,23.2,6.8,34.6,10.9c3.9,1.4,9.1,2.6,7.8,9.1c-0.3,1.6,1.6,1.2,2.6,1.4c4.1,0.8,6.5,4,5.8,8.1
			c-0.7,4.4-0.4,9.1-4.3,12.6c3.6-1.8,7.2-3.5,10.7-5.3c1-0.6,1.7-1.7,0.8-3c-0.9-1.2-1.8-1.3-2.9-0.2c-0.6,0.5-1.4,0.8-2.5,1.5
			c0.6-3.2,1.2-5.8,1.7-8.5c0.8-5.1,3.6-7.8,8.2-8c0.8,0,1.1,0.3,1.2,1.1c0.7,4.3,4.8,6.4,6.7,11.3c1.8-5.7,1.2-10.1-1.2-15.5
			c6,4.1,1.9,10.2,5.3,13.7c1.7-0.6,1.1-2.2,1.5-3.4c0.2-0.6,0.2-1.3,0.4-1.9c7,2.2,4.9-6.3,9.2-7.7c1.8-0.6,3.8-2.3,5.4-2
			c4.7,0.8,7.5-2.2,10.4-4.6c5.7-4.7,11.5-9.5,15.8-15.7c4.7-6.8,11.6-9.4,19.8-8c0.8,0.1,1.9,0.4,2.2,1c3.4,6.3,10.6,9.8,11.3,18.1
			c0.5,5.2,4.8,9.6,8,13.2c3.1,3.5,7.1,6.3,10,10.4c1.5,2.1,2.3,5.7,1.5,5.8c-2.8,0.4-4.3,4.1-7.5,2.5c-0.4-0.2-0.8-0.2-1.4-0.3
			c0.7,4.9,4.3,3.8,8.4,3.8c-3.1,1.5-6.9,1.2-6.6,4.6c0.2,2.1,3,1.2,5.1,1.5c-1.2,2.2-3.6,3.2-4.4,6.3c5.5-1.9,9.6-6.5,15.7-5.3
			c-4.7,2.7-10.6,3.7-14.1,10.1c3.3-1.8,5.6-3,7.8-4.2c0,0-0.1-0.1-0.1-0.1c-0.6,1.3-1.3,2.5-2.1,4.3c3.5-0.3,5.9-2.1,8.6-3.3
			c2.7-1.1,4.5-0.9,5.6,2.5c1.6,5,2.3,10,2.6,15.1c0.1,1.6-1,3.3-1.6,5.1c-2.9-1.8-3.5-4.6-5.6-6.7c-1.9,1.5-2.2,3.1-1,5.1
			c1,1.5,2.1,3,3,4.6c4.4,8.4,4.4,9.7,15.3,4.5c3.5-1.7,6.5-3.1,11.1-2.3c2.3,0.4,7.1-1.3,10.3-2.9c2.3-1.1,4.1-0.8,6.1-0.2
			c6,1.9,12,3.9,17.9,6c2.6,0.9,5.6,1.6,3.3,5.8c-0.9,1.6-1,4.8,3,3.4c2.2-0.8,5-0.5,5.5,1.7c0.6,2.4-2.2,4-4.2,4
			c-5.5-0.2-9.1,3.2-13.1,6.1c-2.1,1.5-3.6,3-4.3,5.7c-0.8,2.8-2.9,4.7-6,2.3c-3.3-2.6-6.7-2.3-10.3-1c-6.1,2.3-12.4,3.7-19,2.9
			c-3.1-0.4-6.5-0.4-7.9-4.1c-0.4-1-1.2-1-2-1.2c-4.1-0.9-7.8-2.6-10.7-5.9c-1.3-1.4-3.4-2.8-5.3-1.7c-1.7,1-1.2,3-0.7,4.9
			c0.5,2.1-0.2,4.1-2.8,5.1c-3.6,1.5-7,3.6-11.2,3c-2.4-0.3-3.1,1.6-3.5,3.4c-1.9,9-9.1,14.7-13.7,22c-0.7,1.2-1.9,2.8-3.6,1.6
			c-1.7-1.2-0.5-2.7,0.1-4c1.3-3.1,2.4-6.2,2-10.6c-1.2,2.7-1.9,4.6-2.9,6.3c-0.9,1.6-1.6,3-4.5,2.8c-4.4-0.3-4.8,4-6.1,7.7
			c0.9-0.2,1.6-0.2,2.1-0.4c1.2-0.4,2.7-1.7,3.6-0.2c0.9,1.4-1,2.2-1.7,3.2c-1.6,2.3-3.1,4.6-4.7,6.9c1.2,1.7,2.8-0.9,3.6,0.5
			c1.2,2.1-2,2.7-1.5,5c5.5-6,8.9-14,16.4-18.5c1.5,0.3-0.3,2,0.7,2.7c1.5,1,1.5-1.4,3-1.1c-2.4,4.1-3.2,8.6-4.5,13
			c-2.3,7.9-8,13.1-16.3,14.5c-5.4,0.9-9.7,3.3-12,7.9c-4.7,9.2-11.6,17-15.9,26.3c-5.3,11.6-11.5,22.8-15.1,35.2
			c-2.5,8.4-9,14.6-14.2,21.5c-9.8,12.9-20.5,25.2-27.1,40.5c-4.9,11.3-14.6,19.3-23,28c-4,4.2-6.4,9.3-10.1,13.5
			c-14,15.7-24.7,34.1-39.2,49.4c-5.7,6-8.9,14-13.6,20.8c-6.1,9-12.2,18-18.4,27c-3.4,4.9-6.4,9.9-8.3,15.6C-24,456-24,424-24,392z
			M151.7,200.3c4.8,3.9,10.2,1.6,16,1.8c-5.1-0.6-1.8-2.8-1.5-4.4c0.2-1.1,0.8-2.3-0.6-3.1c-0.8-0.4-1.8-0.1-2.2,0.6
			c-2.6,4.8-7.6,4.1-11.8,5.2c0.6-1.4-1.1-3.4,1.3-4.3c1.7-0.7,3.3-1.6,5-2.3c0.9-0.4,2.3-0.4,2.3-1.6c0-1.4-1.3-1.8-2.6-1.8
			c-1,0-1.4-0.7-2-1c-3.9-1.7-7.7,0.7-7.9,4.9c-0.1,1,0.4,2-0.6,2.7c-2,1.5-12.5,1-15-0.6c0.6-2.4,3.9-0.4,4.7-2.9
			c-5.7-1.7-11.2-3.3-16.8-5c-0.8-0.2-1.6-0.6-2.3,0.2c-0.9,1-0.1,1.9,0.6,2.6c2.5,2.3,2.4,5.2,2.5,8.3c0.4,12-1.9,23.1-9.3,32.9
			c-1.2,1.6-0.9,2.5,0.3,3.7c0.4-0.2,0.7-0.3,0.9-0.5c3.4-3.2,2.4-9.4,7.8-11.1c-1-3.6,5.3-5.1,2.6-9.3c-0.4-0.6-0.6-2,0.6-2.6
			c2.6,0.7,3.5,4.6,8.3,3.7c-5.8-5.6-8.8-11.8-8-19.5c5.2,1.8,10.1,3.5,14.9,5.1c1.2,0.4,2.5,1.3,3.6-0.1
			C145.1,198.5,148.4,199.7,151.7,200.3z M189.5,132.4c-0.9,6.9,0,12.2,4.5,17.1C194.9,143.3,193.3,138.1,189.5,132.4z M199.8,90.7
			c-1.8-2.5-0.6-8.3-6.7-6.3c-0.3,0.1-0.8-0.6-1.2-0.8c-1-0.5-1.9-1.6-3.1-0.8c-0.9,0.6-0.4,1.5-0.1,2.2c0.4,1.2,0.7,2.1,2.6,2.1
			C194.4,87,197.2,88.6,199.8,90.7z M172.1,154.1c-1.1-3.2,2.7-5.9-1-7.8c-1.2-0.6-4-0.9-4.3,0.8
			C166.2,150.2,168.3,152.3,172.1,154.1z M139.9,210.1c-0.9-4.8-4.1-6-9.7-4C133.3,207.4,136.3,208.6,139.9,210.1z M149.4,219.5
			c-3.6,3.7-6.8,7.5-7.6,12.9C144.3,228.1,146.9,223.8,149.4,219.5z M159.4,171.8c-4.6-1.6-6.9,1-10.6,2.8
			C153.3,175.3,155.8,173.3,159.4,171.8z"/>
			<path d="M129.5,99.3c4.8,1.9,9.7,3.5,15.2,3.7c-0.6-1.8-1.2-3.6-1.8-5.5c6.9-1.2,6.2-0.8,9.7,5.3c2.5,4.3,4.1,10.2,10.1,11.9
			c1.3,0.4,1.7,1.6,1.6,2.8c-0.2,1.8-1.2,3.3-3.1,3.4c-2.2,0.1-3.6,1.2-5.1,2.6c-4.2,3.8-7.7,2.6-8.7-3c-0.3-1.6-1.3-1.8-2.6-1.4
			c-1.6,0.5-3.4,0.7-4.6,1.7c-3.4,2.9-6.1,1.2-8.1-1.3c-1.6-1.9-3.1-2.2-5.1-1.8c-4.4,1-5.3-1.4-5-5c0.1-1,0.3-2,0-2.9
			c-0.2-0.9-0.9-1.9-2-2c-1.5-0.1-1.3,1.1-1.3,2.1c0,1.3-0.4,2.6-1.7,2.6c-1.9,0.1-1.8-1.8-1.9-2.9c0-2,0.2-3.8-1.5-5.5
			c-1.4-1.4,0.7-2.2,1.4-3.2c0.5-0.7,1.3-3.3,2.4-0.3c3.8-3.2,8.6,3.1,12.3-1.4L129.5,99.3z"/>
			<path d="M76.9,254.2c1.9,4.7-0.7,7.6-2.4,10.7c-8.5,15.1-20.3,27.8-30.5,41.6c-1.6,2.1-2,4.5-2.6,6.9c-0.3,1-1,2.3-2.5,1.6
			c-1.2-0.5-0.9-1.6-0.6-2.5c1.1-3.5,1.8-7.4,4.5-9.9c8.1-7.2,12.4-17.1,18.5-25.7C66.4,269.6,71.4,262.2,76.9,254.2z"/>
			<path d="M-19.7,382.6c1.4-8.8,22.2-38,28.2-39.7C0.5,357-7.1,371.1-19.7,382.6z"/>
			<path d="M220.6,37.3c-1,0.1-1.5,0.2-2,0.1c-1.2-0.1-2.7-0.3-2.7,1.2c0,1.7,1.7,1.1,2.7,1.2c4.3,0.4,4.3,0.3,5.6,4.6
			c-4.4-1.6-9.3-1.1-12.6-5c-0.2-0.2-0.3-0.7-0.5-0.7c-0.9,0-0.9,0.8-1.1,1.3c-1.3,3.1-3.9,1.8-5.4,0.9c-2.3-1.3-0.1-3,0.7-4
			c2.3-2.8,4.7-5.4,7.3-8c1.5-1.5,3.3-2.1,5.5-0.2c-1,1.1-3.1,0.3-3.7,2.4C215.9,33.2,219.3,33.8,220.6,37.3z"/>
			<path d="M158.3,27.2c1.5-9,1.5-9-1.5-12c0.3-1.7,3.5-0.6,2.8-1.9c-1.5-3.1-0.4-3.4,2.4-4.1c4.2-1.1,5.1,2.2,6.6,4.4
			c1.6,2.2-1.1,2.9-2.3,4.1C163.5,20.8,160.6,23.7,158.3,27.2z"/>
			<path d="M96.8,121.4c1.9,0.4,4.2,0.5,3.6,3.5c-0.5,2.9,3.9,6.4-1.3,8.8c-2.2,1-3.5-0.2-5-1.1c-1.6-0.9-0.9-2.3,0.1-3.3
			c1.4-1.3,0.5-1.7-0.6-2.5c-1.4-1-0.7-2.4,0.1-3.5C94.5,122.5,95.1,121,96.8,121.4z"/>
			<path d="M171.5,88.1c0.6,3.7-2.8,3.2-5.1,3.9c-1.4,0.4-1.5-1.7-1.2-2c1.8-1.8,3.2-3.6,4.2-5.9C169.7,83.3,171.5,85.3,171.5,88.1z"
			/>
			<path d="M138.6,76.6c-1.7,1.5-3.2,3.2-5,4.5c-0.6,0.4-1.9-1-1.7-1.3c1.4-1.7,2.9-3.3,4.6-4.6C137.1,74.8,138,75.5,138.6,76.6z"/>
			<path d="M129.6,99.2c-1.8-2.1-0.1-2.8,1.4-3.6c2.5-1.4,5.1-0.7,8.3-0.7c-2.7,3.7-8.2-0.2-9.8,4.4
			C129.5,99.3,129.6,99.2,129.6,99.2z"/>
			<path d="M101.8,117.5c4.5,0,4.2,2.8,4.6,5.1c0.1,0.3-0.6,1-0.7,1C103,122.6,103.1,120,101.8,117.5z"/>
			<path d="M219.9,84.9c2.6-2.5,5.5-4.2,10.2-2.1c-3.9,1.3-6.9,2.4-10.3,2C219.8,84.8,219.9,84.9,219.9,84.9z"/>
		</g> <!-- tall -->

		<a xlink:href="http://24.media.tumblr.com/08e261ea48f1ac01a4225246fc6ada1c/tumblr_mkwb8oYtMY1rhl1gao1_400.gif">
			<g id="short">
				path d="M233,426c-6.8-13.3-16.6-24.5-25.8-36c-5.8-7.3-10.2-14.9-13.4-23.7c-5.7-15.4-12.4-30.5-21.8-44.2
				c-1.1-1.6-2.4-3.2-3.2-5c-3.9-8.6-9.8-14.1-19.6-15.7c-6.4-1.1-10.3-6.4-12.3-12.6c-1.1-3.3-1.4-7-3.2-9.9
				c-1.8-2.9,0.9-3.5,1.8-4.7c1.4-1.9,2.7,0.4,3.5,1.2c2.6,2.6,4.9,5.4,7.2,8.3c1.9,2.5,3.3,6.1,7.4,2c-0.9-1.4-2.3-3.2-3.4-5.2
				c-0.8-1.3-3.1-2.2-2-4.2c1.1-2,3,0.8,4.7-0.6c-0.6-3.5-1.6-6.5-6.3-6.5c-3.3,0-3.5-3.5-5.4-5.5c-1,2.8,0.5,4.8,1.2,6.9
				c0.5,1.6,1.6,3.3-0.4,4.4c-1.7,0.9-2.7-0.6-3.5-1.9c-5-7.4-12.1-13.4-13.9-22.8c-0.3-1.7-1.7-2.4-3.4-2.2c-3.3,0.3-6.2-1-9.1-2.2
				c-3.4-1.4-5.9-3.2-4.3-7.5c0.5-1.3,0.1-2.6-1.3-3.4c-1.5-0.9-2.9-0.2-3.6,0.8c-4.1,5.7-11.3,6.4-16.5,10.4
				c-5.2,3.9-12.5,2.3-18.9,0.6c-2.6-0.7-5-1.7-7.6-2.4c-2.8-0.7-5.6-0.3-8.1,1.6c-2,1.5-4.4,1.8-5.5-0.8c-3.9-9-11.5-12.3-20.3-13.9
				c0-2,0-4,0-6c1.1,0.2,2.3,0.5,3.4,0.7c3,0.6,4.3-0.3,3-3.4c-1.3-3-0.1-4.6,2.9-5.6c6.3-2,12.6-4.2,18.9-6.3
				c1.1-0.3,2.6-0.8,3.4-0.3c8.4,4.7,18.6,2.1,27.2,7c6.2,3.6,7.4,2.6,10.9-3.8c1.3-2.5,3-4.8,4.2-7.3c0.5-1,0.7-2.4-0.7-3
				c-1.2-0.5-1.6,0.8-2.2,1.5c-1.1,1.3-1.9,4.1-3.7,3.3c-2-0.8-2-3.6-1.8-5.8c0.4-4.3,1-8.6,2.2-12.8c1.2-4.5,3.8-4.9,7.5-3.1
				c1.9,0.9,5.5,2.8,5.6,2.1c1.1-5.7,3.6,0.7,5.1-1.5c-2.3-3.6-6.9-4.7-10.8-7c3.6-0.9,3.7-0.9,6.8,0.6c2.1,1,4.1,2.1,6.7,3.5
				c-0.2-2.5-2.3-3.3-2.8-5c0.7-1.9,4.4,0.3,4.2-2.8c-0.1-2.5-3-2.2-4.2-3.7c1.9-0.9,4.7,0.2,5.4-2.7c-11.8-3.7-9.1-7-3.1-13.6
				c3.2-3.6,6.8-6.9,10-10.4c2.1-2.3,4-5,4.3-8.3c0.7-8.4,7.4-13.1,12.1-19c2.4-3,12.4-1.5,16.9,2c1.8,1.4,3.5,3.2,4.8,5
				c5.2,7.3,12.2,12.7,19.1,18.3c1.9,1.5,4.1,1.9,6.5,2.1c4.2,0.3,7.8,1.8,9.3,6.3c0.7,2,1.7,3.7,4.2,3.6c3.2-0.1,1.3,3.5,3.6,4.3
				c2.9-3.1-0.2-8.6,4.3-11.7c-0.8,4.2-1.8,8.1-0.6,12.6c2.6-1.9,4-4.5,5.7-6.8c1.1-1.4,0.6-4.3,3.7-3.8c2.7,0.5,4.7,1.8,5.8,4.2
				c1.7,3.5,1.7,7.4,2.5,10.9c-1.3,1.4-2,0.1-2.9-0.1c-0.9-0.3-1.7-0.1-2.1,0.7c-0.5,1-0.1,1.9,0.9,2.5c2.4,1.3,4.7,2.9,7.7,3.5
				c-0.6-3.3-1.2-6.3-1.7-9.4c-0.3-1.8,0-3.6,0.3-5.4c0.7-4.7,7.9-1.8,7.9-7.4c0-5.1,4.6-6,8.3-7.3c11-3.9,21.9-8.1,33.3-10.5
				c6.8-1.4,9.1,1,7.2,7.7c-4.3,15.1-11.4,29.1-19,42.8c-1.5,2.7-3.4,4.5-6,1.3c-1.5-1.8-2.4-1.1-3.4,0.3c-6.4,8.4-15.7,12-25.2,15.3
				c-2.2,0.7-3.6,1.3-5.2-1.5c-1.5-2.8-4-4-7.2-0.6c-3.8,4-11.9,1.7-13.5-3.7c-1.1-3.8,0.7-6.3,5.4-6.7c-5.4-5.1-9.8-10.3-12.2-17.1
				c-2.2-6.3-9-6.2-13.6-9.2c-1.5-1-1.7,1-1.8,2.1c-0.2,2.1,0.2,4.3-1.3,7c-3.5-4.8-7.8-7.9-12.7-10.3c-1.2-0.6-1.5-2.1-1.9-3.4
				c-1.1-3-3.3-5.2-6.4-5.3c-2.3-0.1-3.2-0.7-2.9-2.8c0.3-2.5-0.9-2.6-2.9-2.6c-2.7,0-2.7,1.8-3.1,3.5c-0.6,2.3,0.8,2.4,2.5,2.5
				c4.4,0.5,3.2,2.8,1.5,5.1c-2.2,2.8-2.6,5,2.2,6.1c-4.8,3-5.5,8-8,11.9c-1,1.5,0.4,2.8,0.8,4.2c1.6,6.3-0.2,8.1-6.4,6.6
				c-1.4-0.3-3.1-2.5-4.3-0.1c-1.2,2.3,0.9,3.1,2.5,4.1c3.5,2.1,3.3,6,3.8,9.3c0.3,1.8-1.3,3-2.9,1.6c-2.8-2.6-3.6-0.5-4.5,1.6
				c-1.7,4.1-2.4,8.3-0.8,13.2c1.6-2.1,3.4-3.6,4.4,0.1c0.3,0.9,1,1.3,2,1c1-0.4,0.9-1.2,0.8-2.1c-0.3-3.2,1.2-2.9,3.7-2.3
				c6.2,1.7,5,1.7,5.6,8.2c0.3,3.7,1.9,8.5,4.6,12.1c3.2,4.3,7.1,5.9,12.1,3.1c1-0.5,2.3-0.8,3.4-0.7c1.3,0.1,3.4-1.2,3.9,0.8
				c0.5,2.1-1.1,3.4-3,4c-2.2,0.6-4.6,0.9-6.8,1.6c-0.9,0.3-2.8,1.1-1.6,2.2c0.7,0.6,1.5,3.6,3.7,1.4c2.5-2.4,5.7-3.3,8.9-4.4
				c1-0.3,1.9-0.9,2.5,0.4c0.6,1.3-0.2,2.8-1.3,2.7c-3.5-0.3-4.4,2.3-5.9,4.4c-2.5,3.7-5.4,5-9.7,2.4c-5.1-3-6.1,2.5-8.1,4.8
				c-2.1,2.4-0.2,4.2,2.4,5.7c4.6,2.7,9,5.6,14.5,6.3c1.8,0.2,3.7,1,5.4,0c2.7-1.5,5-3,6.7,1.2c0.5,1.1,2.2,0.6,3.2,0.1
				c1.8-0.9,3.6-1.8,5.1-3c2.3-1.9,4.8-3.7,4.1-7.4c-0.8-4-4.4-1.8-6.5-2.9c-0.4-2,2.3-1.8,2.3-3.2c-0.8-2.3-3-0.4-4.1-2.3
				c1.8-1.3,2.8-2.9,3-5.4c0.2-2,2.2-3.5,4.5-1.9c3.2,2.2,4.9,1.7,5.6-2.3c0.2-1.3,0.2-2.6,0.3-4c4.3,0.4,7.8,2.3,11.1,4.5
				c2.3,1.5,5,2.7,2.2,6.2c-1.1,1.5-0.8,3.9,1.5,4.4c3.3,0.8,5.8,7.6,10.2,1.6c6.7,2.6,6.1-4.7,9.2-6.9c1-0.7,1.3-2.5,3-1.9
				c1.6,0.6,1.4,2.1,1.2,3.4c-1.5,9.5-2.7,18.9-11.4,25.5c-5.9,4.5-9.3,11.8-15.3,16.4c-1.5,1.2-1.3,2.6-0.7,4.1
				c3.2,7.6,4.9,15.5,6.3,23.6c0.8,4.6,3.1,8.7,6.2,13.2c0.9-5.6-3.1-9.3-3.1-14.3c1.9,1,2.6,2.7,3.5,4.1
				c4.8,7.4,10.4,14.8,12.4,23.2c2.6,11.2,10,21.7,5.8,34.1c-0.5,1.5,0,3.2,1.5,3.9c2.2,1,3.8,2.6,5.5,4.2c1.3,1.3,2.6,1.7,3.4-0.4
				c1.7-4.4,3.7-2.7,5.7-0.4c8.7,10.3,15.4,21.7,19.4,34.6c0.7,2.4,1.4,4.8,2.1,7.2C267,426,250,426,233,426z M195,315.8
				c1,0.1,1.4,0.3,1.7,0.2c2.6-0.8,7.3-7.1,6.1,2.3c-0.1,0.5,0.6,1.1,1,1.7c2.7,4.5,6.8,8.1,8.3,13.4c0.3,0.9,1.1,2.6,2.4,1.6
				c1.3-0.9,0.1-2.1-0.5-3c-2.5-3.6-4.8-7.3-5.9-11.5c-2.6-9.9-5.7-19.9-0.1-30c1.2-2.2-0.9-2-2.2-1.6c-4.9,1.4-9.9,2.9-14.8,4.5
				c-0.2,0.1-0.3,0.5-0.4,0.8c0.5,1.4,3.3,0.2,3,2.6c-3.9,1.9-8.1,1.3-12.3,1.2c-1.3,0-2.5-0.6-3-2.1c-3-8-5.3-8.6-12.2-3.4
				c0.8,0.5,1.4,1,2.1,1.2c5,1.5,7.8,6.6,13.8,7.2c2.6,0.3,5.1,1.1,7.7,0.2c3-1.1,6.1-1.8,8.9-3.1c3-1.4,3.8-0.5,3.6,2.6
				C202,306.4,198.8,311,195,315.8z M173.1,300.3c-4.4-0.7-8.3-1.3-10.9-4.9c-0.6-0.9-2.2-0.8-2.2,0.5c0,2.2,0.1,5.2,2.2,5.9
				C165.6,302.8,169.4,303.4,173.1,300.3z M132.1,247.8c4.2-3.7,5.6-8.9,3.5-13.3C132.9,238.6,131.4,242.9,132.1,247.8z M127.4,189.1
				c1.6-0.6,2.7-1.1,3.7-1.4c1.2-0.3,2.5-0.5,3.8-0.7c1.3-0.2,1.9-1.1,2.2-2.3c0.1-0.7,0-1.3-0.7-1.6
				C134.6,182.4,128.3,186.2,127.4,189.1z M156.8,246.1c-1.7,0.2-3.3,0.9-3.2,3c0.1,1.3-0.3,3.7,1.5,3.7c2,0,3.5-1.8,3.8-4
				C159.3,247.2,158.7,246.2,156.8,246.1z"/>
				<path d="M187.3,195.8c4.2-0.6,8.7-2.7,10,3.6c0.3,1.6,2.3,1.7,3.9,1.2c2.4-0.8,4.8-0.9,7.3-0.8c3.1,0.1,4.8,2.3,3.5,5.1
				c-0.7,1.6-0.9,3.2-0.9,4.8c0,1.2,0,2.5-1.6,2.6c-1.5,0.1-2-0.9-2.2-2.1c-0.1-1-0.1-2.2-1.6-1.9c-1,0.2-1.5,1.2-1.5,2.3
				c0,1.3,0.1,2.7,0,4c-0.1,1.6-0.8,3.4-2.4,3.2c-4.1-0.4-7.2,1.1-10.2,3.8c-1.7,1.6-4,0.5-6-0.7c-3.1-1.8-6.5-3.6-7.6,2.2
				c-0.1,0.6-0.7,1.2-1.1,1.6c-1.6,1.6-3.9,1.6-4.9,0.2c-2.6-3.8-9.5-2-10.2-8c-0.1-0.8,0.3-1.7,1.2-2c6.6-2.4,8.1-8.8,11.3-13.9
				c1.1-1.8,1.8-4.2,4.5-4c2,0.1,5.3-0.9,3.6,3.4c-0.9,2.1,0.3,2.7,2.3,2.2c1.1-0.3,2.3-0.3,3.4-0.7c2.6-1,7.2-0.7,7.2-3.1
				c0.1-3.2-4.4-1.2-6.6-2.4C188.2,196.2,187.8,196,187.3,195.8z"/>
				<path d="M249.4,354.1c7.5,11.2,14.6,21.7,21.6,32.2c3.7,5.7,7.3,11.5,12.4,16.2c2.9,2.7,3.5,6.3,4.5,9.8c0.3,0.9,0.4,2.1-0.8,2.5
				c-1.4,0.5-2.2-0.4-2.6-1.6c-2.8-10.1-10.8-16.6-16.7-24.6c-6.1-8.3-12.4-16.5-17.5-25.5C248.9,360.7,247.5,358,249.4,354.1z"/>
				<path d="M110,139c-1.1-2.1-3.3-0.9-4-2.5c-1.4-3.4,8.7-3,2.4-8c2.3-1.7,4.1-0.7,5.7,1c2.3,2.4,4.6,4.8,6.7,7.4
				c1,1.2,2.8,2.4,0.7,4.1c-1.5,1.2-3.5,1.9-4.9,0.1c-1.3-1.7-1.9-1.6-3.4-0.4c-3.1,2.4-6.9,2.8-10.9,3.4
				C102.2,138.2,107.5,140.8,110,139z"/>
				<path d="M166.9,125.8c-2.7-2.8-5.4-5.7-8.1-8.5c-1.3-1.2-2.4-2.3-1.2-4.2c1.4-2.1,2.5-4.5,5.6-4c1.9,0.3,2.9,1.1,4,3.3
				C169.8,117.2,164.5,121.3,166.9,125.8z"/>
				<path d="M233.2,225.6c-2,1.7-0.6,3.8-0.6,5.9c0,1.9-2.6,2.8-4.7,2.5c-2.1-0.3-3.8-1.5-3.6-4c0.2-2,0.8-3.9,1.1-5.8
				c0.4-2.6,2.5-3,4.5-2.8C231.9,221.6,232.7,223.4,233.2,225.6z"/>
				<path d="M156.4,183.9c1,1.5,1.9,2.7,2.7,3.9c0.7,1,2.3,1.8,1.6,3.3c-0.6,1.4-2,0.8-3.1,0.6c-1.7-0.3-3.3-1-3.4-3.1
				C154.2,187.1,154.5,185.4,156.4,183.9z"/>
				<path d="M189.5,175.2c1.7,1.2,3.6,2.5,4.4,4.8c0.3,0.8-0.7,1.2-1.2,1c-2.2-0.8-3.9-2.4-4.9-4.4C187.4,176,188.3,175.1,189.5,175.2
				z"/>
			</g><!-- short -->
		</a>
	</g><!-- foreground -->
</svg>
